<svg width="126" height="136" viewBox="0 0 126 136" fill="none" xmlns="http://www.w3.org/2000/svg">
<path d="M36.2064 112.698C40.7066 101.477 44.1664 92.3013 46.5858 85.1706C48.9593 77.9548 50.432 71.0048 51.004 64.3208C51.576 57.6369 50.5761 51.9106 48.0042 47.1419C45.6621 42.7991 42.8033 39.944 39.4279 38.5766C36.0525 37.2093 32.2361 37.6737 27.9787 39.9697C23.7213 42.2658 21.2238 45.4815 20.4863 49.6166C19.7028 53.6666 20.6003 58.184 23.1788 63.1689L5.8086 72.5369C0.638178 62.1347 -0.518252 52.7555 2.33932 44.3991C5.28204 35.9969 11.1811 29.4078 20.0365 24.632C29.7434 19.3969 38.5946 17.9759 46.5901 20.3691C54.5396 22.6771 60.7877 28.0462 65.3343 36.4765C68.9164 43.1185 70.5497 50.4269 70.2342 58.4015C69.9187 66.3762 68.6789 73.86 66.5149 80.853C64.305 87.7608 61.1954 96.363 57.1859 106.66L94.864 86.3391L102.855 101.156L39.7602 135.184L32.5959 121.9L36.2064 112.698Z" fill="url(#paint0_linear_149_179)"/>
<path d="M89.0474 48.585C81.1023 33.8534 77.519 20.8914 78.2976 9.69912C79.1612 -1.53907 85.7663 -10.4875 98.1128 -17.1462C110.459 -23.8049 121.522 -24.3852 131.302 -18.8873C141.167 -13.4352 150.072 -3.34338 158.017 11.3883C166.008 26.2051 169.595 39.2752 168.777 50.5986C168.045 61.876 161.505 70.844 149.159 77.5027C136.812 84.1614 125.683 84.7221 115.772 79.1849C105.947 73.6018 97.0383 63.4019 89.0474 48.585ZM140.392 20.8941C136.993 14.5927 133.72 9.54277 130.572 5.74427C127.464 1.81471 123.94 -0.846672 120.001 -2.23987C116.148 -3.67899 111.837 -3.11274 107.068 -0.541115C102.3 2.03051 99.4159 5.34466 98.4162 9.40133C97.5017 13.4121 97.7898 17.8185 99.2805 22.6206C100.81 27.2916 103.275 32.7778 106.673 39.0792C110.163 45.5509 113.486 50.7941 116.64 54.8089C119.749 58.7384 123.272 61.3998 127.211 62.793C131.104 64.101 135.435 63.4693 140.203 60.8976C144.972 58.326 147.878 55.0544 148.924 51.0829C149.924 47.0263 149.636 42.6198 148.06 37.8637C146.438 33.0224 143.882 27.3658 140.392 20.8941Z" fill="url(#paint1_linear_149_179)"/>
<defs>
<linearGradient id="paint0_linear_149_179" x1="60.73" y1="2.68523" x2="111.914" y2="97.5896" gradientUnits="userSpaceOnUse">
<stop stop-color="#5671A6"/>
<stop offset="1" stop-color="#B3CBD9"/>
</linearGradient>
<linearGradient id="paint1_linear_149_179" x1="60.73" y1="2.68523" x2="111.914" y2="97.5896" gradientUnits="userSpaceOnUse">
<stop stop-color="#5671A6"/>
<stop offset="1" stop-color="#B3CBD9"/>
</linearGradient>
</defs>
</svg>
