<svg width="81" height="123" viewBox="0 0 81 123" fill="none" xmlns="http://www.w3.org/2000/svg">
<path d="M54.681 28.6145C52.1716 24.5924 49.2487 21.9255 45.9122 20.6138C42.6798 19.2671 38.6696 19.3979 33.8815 21.0063C26.6994 23.4189 22.3699 28.1166 20.893 35.0994C19.4852 41.9431 20.9146 51.888 25.1811 64.9341C26.2806 59.9314 28.8398 55.4808 32.8587 51.5825C36.8426 47.5801 41.6449 44.6348 47.2657 42.7467C54.0315 40.474 60.5061 39.9208 66.6895 41.087C72.873 42.2532 78.366 45.1572 83.1686 49.799C87.9362 54.3367 91.6312 60.5089 94.2535 68.3155C96.7361 75.7058 97.447 82.8224 96.3865 89.6654C95.3951 96.3693 92.5789 102.296 87.9379 107.446C83.297 112.596 77.0211 116.499 69.1104 119.157C58.2852 122.793 48.9457 123.266 41.092 120.576C33.3424 117.851 26.785 112.64 21.4197 104.944C16.1236 97.1088 11.3601 86.8939 7.1294 74.2992C0.730819 55.2509 -0.815545 39.7853 2.4903 27.9023C5.76119 15.9152 14.4747 7.54399 28.6307 2.78876C39.56 -0.882551 49.0397 -0.765664 57.0699 3.13943C65.1 7.04452 71.0695 13.2635 74.9783 21.7963L54.681 28.6145ZM48.3009 62.3803C42.7842 64.2335 38.6942 67.4028 36.0309 71.8883C33.3676 76.3737 33.0675 81.6871 35.1304 87.8283C37.1933 93.9696 40.5367 98.2328 45.1604 100.618C49.8882 102.968 55.4268 103.077 61.7762 100.944C67.397 99.0558 71.2439 95.8524 73.3168 91.3335C75.4938 86.7797 75.6032 81.5884 73.6452 75.7594C71.6172 69.7222 68.3955 65.4761 63.9799 63.021C59.6685 60.531 54.4421 60.3174 48.3009 62.3803Z" fill="url(#paint0_linear_149_152)"/>
<defs>
<linearGradient id="paint0_linear_149_152" x1="27.772" y1="3.07722" x2="67.0026" y2="119.865" gradientUnits="userSpaceOnUse">
<stop stop-color="#5671A6"/>
<stop offset="1" stop-color="#B3CBD9"/>
</linearGradient>
</defs>
</svg>
